<svg xmlns="http://www.w3.org/2000/svg" width="16" height="16" viewBox="0 0 16 16" fill="url(#cyberGradient_554d8f33)"><defs>
  <linearGradient id="cyberGradient_566ca0c5" x1="87%" y1="83%" x2="13%" y2="17%">
    <stop offset="0%" style="stop-color:#00ff41;stop-opacity:1" />
    <stop offset="50%" style="stop-color:#9d00ff;stop-opacity:1" />
    <stop offset="100%" style="stop-color:#ff00ff;stop-opacity:1" />
  </linearGradient>
</defs><defs>
  <linearGradient id="cyberGradient_b76e2207" x1="95%" y1="29%" x2="5%" y2="71%">
    <stop offset="0%" style="stop-color:#00ff41;stop-opacity:1" />
    <stop offset="50%" style="stop-color:#9d00ff;stop-opacity:1" />
    <stop offset="100%" style="stop-color:#ff00ff;stop-opacity:1" />
  </linearGradient>
</defs><defs>
  <linearGradient id="cyberGradient_4b80b01c" x1="79%" y1="9%" x2="21%" y2="91%">
    <stop offset="0%" style="stop-color:#00ff41;stop-opacity:1" />
    <stop offset="50%" style="stop-color:#9d00ff;stop-opacity:1" />
    <stop offset="100%" style="stop-color:#ff00ff;stop-opacity:1" />
  </linearGradient>
</defs><defs>
  <linearGradient id="cyberGradient_01c1877f" x1="50%" y1="0%" x2="50%" y2="100%">
    <stop offset="0%" style="stop-color:#00ff41;stop-opacity:1" />
    <stop offset="50%" style="stop-color:#9d00ff;stop-opacity:1" />
    <stop offset="100%" style="stop-color:#ff00ff;stop-opacity:1" />
  </linearGradient>
</defs><defs>
  <linearGradient id="cyberGradient_b7cde9ca" x1="50%" y1="0%" x2="50%" y2="100%">
    <stop offset="0%" style="stop-color:#00f3ff;stop-opacity:1" />
    <stop offset="50%" style="stop-color:#9d00ff;stop-opacity:1" />
    <stop offset="100%" style="stop-color:#ff00ff;stop-opacity:1" />
  </linearGradient>
</defs><defs>
  <radialGradient id="cyberGradient_88405bf0" cx="50%" cy="50%" r="50%" fx="50%" fy="50%">
    <stop offset="0%" style="stop-color:#00f3ff;stop-opacity:1" />
    <stop offset="50%" style="stop-color:#9d00ff;stop-opacity:1" />
    <stop offset="100%" style="stop-color:#ff00ff;stop-opacity:1" />
  </radialGradient>
</defs><defs>
  <radialGradient id="cyberGradient_0220a75a" cx="50%" cy="50%" r="50%" fx="50%" fy="50%">
    <stop offset="0%" style="stop-color:#00f3ff;stop-opacity:1" />
    <stop offset="50%" style="stop-color:#9d00ff;stop-opacity:1" />
    <stop offset="100%" style="stop-color:#ff00ff;stop-opacity:1" />
  </radialGradient>
</defs><defs>
  <radialGradient id="cyberGradient_554d8f33" cx="50%" cy="50%" r="50%" fx="50%" fy="50%">
    <stop offset="0%" style="stop-color:#00f3ff;stop-opacity:1" />
    <stop offset="50%" style="stop-color:#9d00ff;stop-opacity:1" />
    <stop offset="100%" style="stop-color:#ff00ff;stop-opacity:1" />
  </radialGradient>
</defs><path d="M12.5 1H3.5C2.121 1 1 2.121 1 3.5V12.5C1 13.879 2.121 15 3.5 15H12.5C13.879 15 15 13.879 15 12.5V3.5C15 2.121 13.879 1 12.5 1ZM6 6.5C6 6.775 5.775 7 5.5 7C5.225 7 5 6.775 5 6.5C5 6.225 5.225 6 5.5 6C5.775 6 6 6.225 6 6.5ZM12.5 14H6V11.5C6 11.225 6.225 11 6.5 11H9.092C9.299 11.581 9.849 12 10.5 12C11.327 12 12 11.327 12 10.5C12 9.673 11.327 9 10.5 9C9.849 9 9.299 9.419 9.092 10H6.5C5.673 10 5 10.673 5 11.5V14H3.5C2.673 14 2 13.327 2 12.5V3.5C2 2.673 2.673 2 3.5 2H5V5.092C4.419 5.299 4 5.849 4 6.5C4 7.327 4.673 8 5.5 8C6.327 8 7 7.327 7 6.5C7 5.849 6.581 5.299 6 5.092V2H12.5C13.327 2 14 2.673 14 3.5V6H10.908C10.701 5.419 10.151 5 9.5 5C8.673 5 8 5.673 8 6.5C8 7.327 8.673 8 9.5 8C10.151 8 10.701 7.581 10.908 7H14V12.5C14 13.327 13.327 14 12.5 14ZM10 10.5C10 10.225 10.225 10 10.5 10C10.775 10 11 10.225 11 10.5C11 10.775 10.775 11 10.5 11C10.225 11 10 10.775 10 10.5ZM10 6.5C10 6.775 9.775 7 9.5 7C9.225 7 9 6.775 9 6.5C9 6.225 9.225 6 9.5 6C9.775 6 10 6.225 10 6.5Z" fill="url(#cyberGradient_566ca0c5)" /></svg>